{
  "accessors": [
    {
      "bufferView": 2,
      "componentType": 5126,
      "count": 5491,
      "max": [
        0.98115396499633789,
        0.98109585046768188,
        5.7899775505065918
      ],
      "min": [
        -0.98115396499633789,
        -0.98109585046768188,
        0
      ],
      "type": "VEC3"
    },
    {
      "bufferView": 2,
      "byteOffset": 65892,
      "componentType": 5126,
      "count": 5491,
      "max": [
        1,
        1,
        0.99993747472763062
      ],
      "min": [
        -1,
        -1,
        -1
      ],
      "type": "VEC3"
    },
    {
      "bufferView": 3,
      "componentType": 5126,
      "count": 5491,
      "max": [
        1,
        0.99992138147354126,
        0.98911768198013306,
        1
      ],
      "min": [
        -0.99993723630905151,
        -0.99986189603805542,
        -0.82356745004653931,
        -1
      ],
      "type": "VEC4"
    },
    {
      "bufferView": 1,
      "componentType": 5126,
      "count": 5491,
      "max": [
        0.99950003623962402,
        0.98821640014648438
      ],
      "min": [
        0.00050000002374872565,
        0.00050000002374872565
      ],
      "type": "VEC2"
    },
    {
      "bufferView": 0,
      "componentType": 5125,
      "count": 31536,
      "max": [
        5490
      ],
      "min": [
        0
      ],
      "type": "SCALAR"
    },
    {
      "bufferView": 2,
      "byteOffset": 131784,
      "componentType": 5126,
      "count": 1381,
      "max": [
        0.54330664873123169,
        0.5448378324508667,
        7.1376810073852539
      ],
      "min": [
        -0.54385578632354736,
        -0.5448380708694458,
        5.7819843292236328
      ],
      "type": "VEC3"
    },
    {
      "bufferView": 2,
      "byteOffset": 148356,
      "componentType": 5126,
      "count": 1381,
      "max": [
        0.97999894618988037,
        0.99746847152709961,
        0.93427252769470215
      ],
      "min": [
        -0.99424535036087036,
        -0.99734276533126831,
        0.066281251609325409
      ],
      "type": "VEC3"
    },
    {
      "bufferView": 3,
      "byteOffset": 87856,
      "componentType": 5126,
      "count": 1381,
      "max": [
        0.9913603663444519,
        0.70016837120056152,
        0.99503886699676514,
        1
      ],
      "min": [
        -0.99495965242385864,
        -1,
        -0.88423049449920654,
        1
      ],
      "type": "VEC4"
    },
    {
      "bufferView": 1,
      "byteOffset": 43928,
      "componentType": 5126,
      "count": 1381,
      "max": [
        0.99308747053146362,
        0.98721808195114136
      ],
      "min": [
        0.00050000002374872565,
        0.0058201146312057972
      ],
      "type": "VEC2"
    },
    {
      "bufferView": 0,
      "byteOffset": 126144,
      "componentType": 5125,
      "count": 7344,
      "max": [
        1380
      ],
      "min": [
        0
      ],
      "type": "SCALAR"
    },
    {
      "bufferView": 2,
      "byteOffset": 164928,
      "componentType": 5126,
      "count": 2742,
      "max": [
        0.98115396499633789,
        0.98109638690948486,
        7.1902017593383789
      ],
      "min": [
        -0.98115396499633789,
        -0.98109585046768188,
        3.3826665878295898
      ],
      "type": "VEC3"
    },
    {
      "bufferView": 2,
      "byteOffset": 197832,
      "componentType": 5126,
      "count": 2742,
      "max": [
        1,
        1,
        1
      ],
      "min": [
        -1,
        -1,
        -2.6357345632277429e-05
      ],
      "type": "VEC3"
    },
    {
      "bufferView": 3,
      "byteOffset": 109952,
      "componentType": 5126,
      "count": 2742,
      "max": [
        0.99999064207077026,
        0.99999481439590454,
        0.84845846891403198,
        1
      ],
      "min": [
        -1,
        -0.99999982118606567,
        -0.98854434490203857,
        1
      ],
      "type": "VEC4"
    },
    {
      "bufferView": 1,
      "byteOffset": 54976,
      "componentType": 5126,
      "count": 2742,
      "max": [
        0.99950003623962402,
        0.93610984086990356
      ],
      "min": [
        0.00050000002374872565,
        0.00050000002374872565
      ],
      "type": "VEC2"
    },
    {
      "bufferView": 0,
      "byteOffset": 155520,
      "componentType": 5125,
      "count": 15120,
      "max": [
        2741
      ],
      "min": [
        0
      ],
      "type": "SCALAR"
    },
    {
      "bufferView": 4,
      "componentType": 5126,
      "count": 363,
      "max": [
        6.25
      ],
      "min": [
        0
      ],
      "type": "SCALAR"
    },
    {
      "bufferView": 5,
      "componentType": 5126,
      "count": 363,
      "max": [
        -1.428317666053772,
        9.6539897918701172,
        -11.790023803710938
      ],
      "min": [
        -8.2891502380371094,
        5.286433219909668,
        -11.790023803710938
      ],
      "type": "VEC3"
    },
    {
      "bufferView": 4,
      "byteOffset": 1452,
      "componentType": 5126,
      "count": 363,
      "max": [
        6.25
      ],
      "min": [
        0
      ],
      "type": "SCALAR"
    },
    {
      "bufferView": 6,
      "componentType": 5126,
      "count": 363,
      "max": [
        -0.63321387767791748,
        -0,
        0.31470653414726257,
        0.70710676908493042
      ],
      "min": [
        -0.70710676908493042,
        -0.31470653414726257,
        0,
        0.63321387767791748
      ],
      "type": "VEC4"
    }
  ],
  "animations": [
    {
      "channels": [
        {
          "sampler": 0,
          "target": {
            "node": 9,
            "path": "translation"
          }
        },
        {
          "sampler": 1,
          "target": {
            "node": 9,
            "path": "rotation"
          }
        }
      ],
      "name": "Take 001",
      "samplers": [
        {
          "input": 15,
          "interpolation": "LINEAR",
          "output": 16
        },
        {
          "input": 17,
          "interpolation": "LINEAR",
          "output": 18
        }
      ]
    }
  ],
  "asset": {
    "extras": {
      "author": "Simon Norbert / VR Friends (https://sketchfab.com/simonnorbert)",
      "license": "CC-BY-4.0 (http://creativecommons.org/licenses/by/4.0/)",
      "source": "https://sketchfab.com/models/68b5537cef954a4fa86c06774a9ada88",
      "title": "Lipstick (requested)"
    },
    "generator": "Sketchfab-3.19.4",
    "version": "2.0"
  },
  "bufferViews": [
    {
      "buffer": 0,
      "byteLength": 216000,
      "byteOffset": 0,
      "name": "floatBufferViews",
      "target": 34963
    },
    {
      "buffer": 0,
      "byteLength": 76912,
      "byteOffset": 216000,
      "byteStride": 8,
      "name": "floatBufferViews",
      "target": 34962
    },
    {
      "buffer": 0,
      "byteLength": 230736,
      "byteOffset": 292912,
      "byteStride": 12,
      "name": "floatBufferViews",
      "target": 34962
    },
    {
      "buffer": 0,
      "byteLength": 153824,
      "byteOffset": 523648,
      "byteStride": 16,
      "name": "floatBufferViews",
      "target": 34962
    },
    {
      "buffer": 0,
      "byteLength": 2904,
      "byteOffset": 677472,
      "name": "floatBufferViews"
    },
    {
      "buffer": 0,
      "byteLength": 4356,
      "byteOffset": 680376,
      "byteStride": 12,
      "name": "floatBufferViews"
    },
    {
      "buffer": 0,
      "byteLength": 5808,
      "byteOffset": 684732,
      "byteStride": 16,
      "name": "floatBufferViews"
    }
  ],
  "buffers": [
    {
      "byteLength": 690540,
      "uri": "scene.bin"
    }
  ],
  "extensionsRequired": [
    "KHR_materials_pbrSpecularGlossiness"
  ],
  "extensionsUsed": [
    "KHR_materials_pbrSpecularGlossiness"
  ],
  "images": [
    {
      "uri": "textures/Material_36_diffuse.png"
    },
    {
      "uri": "textures/Material_37_diffuse.png"
    },
    {
      "uri": "textures/Material_37_specularGlossiness.png"
    },
    {
      "uri": "textures/03_-_Default_diffuse.png"
    },
    {
      "uri": "textures/03_-_Default_specularGlossiness.png"
    }
  ],
  "materials": [
    {
      "doubleSided": true,
      "emissiveFactor": [
        0,
        0,
        0
      ],
      "extensions": {
        "KHR_materials_pbrSpecularGlossiness": {
          "diffuseFactor": [
            1,
            1,
            1,
            1
          ],
          "diffuseTexture": {
            "index": 1,
            "texCoord": 0
          },
          "glossinessFactor": 1,
          "specularFactor": [
            1,
            1,
            1
          ],
          "specularGlossinessTexture": {
            "index": 2,
            "texCoord": 0
          }
        }
      },
      "name": "Material_37"
    },
    {
      "doubleSided": true,
      "emissiveFactor": [
        0,
        0,
        0
      ],
      "extensions": {
        "KHR_materials_pbrSpecularGlossiness": {
          "diffuseFactor": [
            1,
            1,
            1,
            1
          ],
          "diffuseTexture": {
            "index": 0,
            "texCoord": 0
          },
          "glossinessFactor": 0.74411043509999997,
          "specularFactor": [
            0.15515337979999999,
            0.15515337979999999,
            0.15515337979999999
          ]
        }
      },
      "name": "Material_36"
    },
    {
      "doubleSided": true,
      "emissiveFactor": [
        0,
        0,
        0
      ],
      "extensions": {
        "KHR_materials_pbrSpecularGlossiness": {
          "diffuseFactor": [
            1,
            1,
            1,
            1
          ],
          "diffuseTexture": {
            "index": 3,
            "texCoord": 0
          },
          "glossinessFactor": 1,
          "specularFactor": [
            1,
            1,
            1
          ],
          "specularGlossinessTexture": {
            "index": 4,
            "texCoord": 0
          }
        }
      },
      "name": "03_-_Default"
    }
  ],
  "meshes": [
    {
      "name": "ruzs_Material #37_0",
      "primitives": [
        {
          "attributes": {
            "NORMAL": 1,
            "POSITION": 0,
            "TANGENT": 2,
            "TEXCOORD_0": 3
          },
          "indices": 4,
          "material": 0,
          "mode": 4
        }
      ]
    },
    {
      "name": "ruzs_Material #36_0",
      "primitives": [
        {
          "attributes": {
            "NORMAL": 6,
            "POSITION": 5,
            "TANGENT": 7,
            "TEXCOORD_0": 8
          },
          "indices": 9,
          "material": 1,
          "mode": 4
        }
      ]
    },
    {
      "name": "kupak_03 - Default_0",
      "primitives": [
        {
          "attributes": {
            "NORMAL": 11,
            "POSITION": 10,
            "TANGENT": 12,
            "TEXCOORD_0": 13
          },
          "indices": 14,
          "material": 2,
          "mode": 4
        }
      ]
    }
  ],
  "nodes": [
    {
      "children": [
        1
      ],
      "name": "RootNode (gltf orientation matrix)",
      "rotation": [
        -0.70710678118654746,
        -0,
        -0,
        0.70710678118654757
      ]
    },
    {
      "children": [
        2
      ],
      "name": "RootNode (model correction matrix)"
    },
    {
      "children": [
        3
      ],
      "matrix": [
        1,
        0,
        0,
        0,
        0,
        0,
        1,
        0,
        0,
        -1,
        0,
        0,
        0,
        0,
        0,
        1
      ],
      "name": "53b0a62366934e439cc96c8b9e773f7f.fbx"
    },
    {
      "children": [
        4
      ],
      "name": ""
    },
    {
      "children": [
        5,
        9
      ],
      "name": "RootNode"
    },
    {
      "children": [
        6
      ],
      "name": "ruzs",
      "rotation": [
        -0.7071068286895752,
        -0,
        0,
        0.7071068286895752
      ],
      "translation": [
        -1.428317666053772,
        3.568840503692627,
        -11.790023803710938
      ]
    },
    {
      "children": [
        7,
        8
      ],
      "matrix": [
        1,
        0,
        -0,
        0,
        0,
        1,
        0,
        0,
        0,
        0,
        1,
        0,
        0,
        0,
        -3.568840503692627,
        1
      ],
      "name": ""
    },
    {
      "mesh": 0,
      "name": "ruzs_Material #37_0"
    },
    {
      "mesh": 1,
      "name": "ruzs_Material #36_0"
    },
    {
      "children": [
        10
      ],
      "name": "kupak",
      "rotation": [
        -0.7071068286895752,
        -0,
        0,
        0.7071068286895752
      ],
      "translation": [
        -1.428317666053772,
        5.286433219909668,
        -11.790023803710938
      ]
    },
    {
      "children": [
        11
      ],
      "matrix": [
        1,
        0,
        -0,
        0,
        0,
        1,
        0,
        0,
        0,
        0,
        1,
        0,
        0,
        0,
        -5.286433219909668,
        1
      ],
      "name": ""
    },
    {
      "mesh": 2,
      "name": "kupak_03 - Default_0"
    }
  ],
  "samplers": [
    {
      "magFilter": 9729,
      "minFilter": 9987,
      "wrapS": 10497,
      "wrapT": 10497
    }
  ],
  "scene": 0,
  "scenes": [
    {
      "name": "OSG_Scene",
      "nodes": [
        0
      ]
    }
  ],
  "textures": [
    {
      "sampler": 0,
      "source": 0
    },
    {
      "sampler": 0,
      "source": 1
    },
    {
      "sampler": 0,
      "source": 2
    },
    {
      "sampler": 0,
      "source": 3
    },
    {
      "sampler": 0,
      "source": 4
    }
  ]
}

